<svg aria-hidden="true" style="position: absolute; width: 0; height: 0; overflow: hidden;" version="1.1" xmlns="http://www.w3.org/2000/svg" xmlns:xlink="http://www.w3.org/1999/xlink">
<defs>
<symbol id="icon-phone-call" viewBox="0 0 32 32">
<path fill="#bb7a3b" style="fill: var(--color1, #bb7a3b)" d="M28.533 15.132h3.333c0-8.55-6.455-14.998-15.017-14.998v3.333c6.77 0 11.683 4.905 11.683 11.665z"></path>
<path fill="#bb7a3b" style="fill: var(--color1, #bb7a3b)" d="M16.867 10.133c3.505 0 5 1.495 5 5h3.333c0-5.375-2.958-8.333-8.333-8.333v3.333zM22.57 19.205c-0.32-0.291-0.741-0.446-1.174-0.433s-0.843 0.194-1.145 0.505l-3.988 4.102c-0.96-0.183-2.89-0.785-4.877-2.767-1.987-1.988-2.588-3.923-2.767-4.877l4.098-3.99c0.311-0.301 0.492-0.712 0.505-1.145s-0.142-0.854-0.434-1.174l-6.158-6.772c-0.292-0.321-0.697-0.516-1.13-0.543s-0.859 0.116-1.189 0.398l-3.617 3.102c-0.288 0.289-0.46 0.674-0.483 1.082-0.025 0.417-0.502 10.287 7.152 17.943 6.677 6.675 15.040 7.163 17.343 7.163 0.337 0 0.543-0.010 0.598-0.013 0.408-0.023 0.792-0.196 1.080-0.485l3.1-3.618c0.282-0.329 0.426-0.755 0.399-1.188s-0.221-0.838-0.542-1.13l-6.773-6.16z"></path>
</symbol>
<symbol id="icon-address" viewBox="0 0 32 32">
<path fill="#bb7a3b" style="fill: var(--color1, #bb7a3b)" d="M31.678 8.284l-3.8-2.92c-0.258-0.165-0.539-0.293-0.834-0.378-0.293-0.095-0.599-0.147-0.907-0.156h-10.938l1.282 7.979h9.656c0.262 0 0.59-0.059 0.906-0.156s0.619-0.231 0.834-0.377l3.8-2.924c0.216-0.145 0.323-0.338 0.323-0.533s-0.107-0.388-0.322-0.535zM13.6 1.637h-1.6c-0.212 0-0.416 0.084-0.566 0.234s-0.234 0.353-0.234 0.564v5.586h-5.338c-0.266 0-0.592 0.059-0.907 0.158-0.317 0.096-0.619 0.228-0.834 0.377l-3.8 2.92c-0.216 0.145-0.322 0.34-0.322 0.535 0 0.193 0.106 0.386 0.322 0.535l3.8 2.924c0.214 0.145 0.517 0.279 0.834 0.375 0.315 0.097 0.642 0.156 0.907 0.156h5.338v13.565c0 0.212 0.084 0.415 0.234 0.564s0.354 0.234 0.566 0.234h1.6c0.212 0 0.416-0.084 0.566-0.234s0.234-0.353 0.234-0.564v-27.13c0-0.212-0.084-0.415-0.234-0.564s-0.354-0.234-0.566-0.234z"></path>
</symbol>
<symbol id="icon-mail" viewBox="0 0 47 32">
<path fill="#bb7a3b" style="fill: var(--color1, #bb7a3b)" d="M1.607 3.816l19.385 10.413c0.651 0.349 1.494 0.514 2.342 0.514s1.69-0.165 2.342-0.514l19.385-10.413c1.264-0.68 2.458-3.324 0.14-3.324h-43.729c-2.318 0-1.124 2.644 0.137 3.324zM45.646 9.51l-19.971 10.408c-0.879 0.46-1.494 0.514-2.342 0.514s-1.463-0.054-2.342-0.514c-0.879-0.46-18.436-9.664-19.871-10.411-1.008-0.527-0.998 0.090-0.998 0.566v18.85c0 1.086 1.463 2.585 2.585 2.585h41.354c1.122 0 2.585-1.499 2.585-2.585v-18.847c0-0.476 0.010-1.093-1-0.566z"></path>
</symbol>
<symbol id="icon-mdi_web" viewBox="0 0 32 32">
<path fill="#bb7a3b" style="fill: var(--color1, #bb7a3b)" d="M22.782 19.111c0.124-1.027 0.218-2.053 0.218-3.111s-0.093-2.085-0.218-3.111h5.258c0.249 0.996 0.405 2.038 0.405 3.111s-0.156 2.115-0.405 3.111h-5.258zM20.029 27.76c0.933-1.727 1.649-3.593 2.147-5.538h4.589c-1.507 2.595-3.898 4.561-6.736 5.538zM19.64 19.111h-7.28c-0.155-1.027-0.249-2.053-0.249-3.111s0.093-2.1 0.249-3.111h7.28c0.14 1.011 0.249 2.053 0.249 3.111s-0.109 2.084-0.249 3.111zM16 28.382c-1.291-1.867-2.333-3.936-2.971-6.16h5.942c-0.638 2.224-1.68 4.293-2.971 6.16zM9.778 9.778h-4.542c1.492-2.602 3.881-4.571 6.72-5.538-0.933 1.727-1.633 3.593-2.178 5.538zM5.236 22.222h4.542c0.544 1.944 1.245 3.811 2.178 5.538-2.833-0.977-5.219-2.944-6.72-5.538zM3.96 19.111c-0.249-0.996-0.404-2.038-0.404-3.111s0.156-2.116 0.404-3.111h5.258c-0.124 1.027-0.218 2.053-0.218 3.111s0.093 2.084 0.218 3.111h-5.258zM16 3.602c1.291 1.867 2.333 3.951 2.971 6.176h-5.942c0.638-2.224 1.68-4.309 2.971-6.176zM26.764 9.778h-4.589c-0.487-1.927-1.208-3.786-2.147-5.538 2.862 0.98 5.242 2.956 6.736 5.538zM16 0.445c-8.602 0-15.556 7-15.556 15.556 0 4.126 1.639 8.082 4.556 10.999 1.444 1.444 3.159 2.59 5.047 3.372s3.91 1.184 5.953 1.184c4.126 0 8.082-1.639 11-4.556s4.556-6.874 4.556-10.999c0-2.043-0.402-4.066-1.184-5.953s-1.928-3.602-3.372-5.047c-1.445-1.444-3.159-2.59-5.047-3.372s-3.91-1.184-5.953-1.184z"></path>
</symbol>
<symbol id="icon-telegram" viewBox="0 0 32 32">
<path d="M16 0c-8.838 0-16 7.162-16 16s7.162 16 16 16 16-7.163 16-16-7.163-16-16-16zM23.863 10.969l-2.625 12.369c-0.181 0.881-0.712 1.087-1.45 0.681l-4-2.956-1.919 1.869c-0.225 0.219-0.4 0.4-0.8 0.4-0.519 0-0.431-0.194-0.606-0.688l-1.363-4.475-3.956-1.231c-0.856-0.262-0.862-0.85 0.194-1.269l15.412-5.95c0.7-0.319 1.381 0.169 1.113 1.25z"></path>
</symbol>
<symbol id="icon-github" viewBox="0 0 32 32">
<path d="M16 0.395c-8.836 0-16 7.163-16 16 0 7.069 4.585 13.067 10.942 15.182 0.8 0.148 1.094-0.347 1.094-0.77 0-0.381-0.015-1.642-0.022-2.979-4.452 0.968-5.391-1.888-5.391-1.888-0.728-1.849-1.776-2.341-1.776-2.341-1.452-0.993 0.11-0.973 0.11-0.973 1.606 0.113 2.452 1.649 2.452 1.649 1.427 2.446 3.743 1.739 4.656 1.33 0.143-1.034 0.558-1.74 1.016-2.14-3.554-0.404-7.29-1.777-7.29-7.907 0-1.747 0.625-3.174 1.649-4.295-0.166-0.403-0.714-2.030 0.155-4.234 0 0 1.344-0.43 4.401 1.64 1.276-0.355 2.645-0.532 4.005-0.539 1.359 0.006 2.729 0.184 4.008 0.539 3.054-2.070 4.395-1.64 4.395-1.64 0.871 2.204 0.323 3.831 0.157 4.234 1.026 1.12 1.647 2.548 1.647 4.295 0 6.145-3.743 7.498-7.306 7.895 0.574 0.497 1.085 1.47 1.085 2.963 0 2.141-0.019 3.864-0.019 4.391 0 0.426 0.288 0.925 1.099 0.768 6.354-2.118 10.933-8.113 10.933-15.18 0-8.837-7.164-16-16-16z"></path>
</symbol>
<symbol id="icon-linkedin" viewBox="0 0 32 32">
<path d="M29 0h-26c-1.65 0-3 1.35-3 3v26c0 1.65 1.35 3 3 3h26c1.65 0 3-1.35 3-3v-26c0-1.65-1.35-3-3-3zM12 26h-4v-14h4v14zM10 10c-1.106 0-2-0.894-2-2s0.894-2 2-2c1.106 0 2 0.894 2 2s-0.894 2-2 2zM26 26h-4v-8c0-1.106-0.894-2-2-2s-2 0.894-2 2v8h-4v-14h4v2.481c0.825-1.131 2.087-2.481 3.5-2.481 2.488 0 4.5 2.238 4.5 5v9z"></path>
</symbol>
</defs>
</svg>
